<?xml version="1.0" ?><svg style="enable-background:new 0 0 48 48;" version="1.1" viewBox="0 0 48 48" xml:space="preserve" xmlns="http://www.w3.org/2000/svg" xmlns:xlink="http://www.w3.org/1999/xlink"><g id="Icons"><g><path d="M20.41434,25.40327l-0.1193,1.41341l-5.38711,1.46017    c-2.92057,0.79154-5.22335,2.6859-6.21409,5.11211l-1.44434,3.53671c0,0,16.0547,6.13952,33.50101,0.02821l-1.44434-3.5366    c-0.99085-2.42622-3.29352-4.32068-6.21409-5.11222l-5.38711-1.46008l-0.10867-1.36883" style="fill:#A67358;"/><path d="M27.65093,27.03197c0.00007,3.84891-7.35583,3.81145-7.35589-0.03239v-1.59631h7.35589V27.03197z" style="fill:#DDBEA8;"/><path d="M17.01233,17.16884c0,0-0.91789,0.64477-0.95211,1.83076    c-0.03422,1.186,0.47264,2.45349,1.91765,2.57178c0,0,0.50225,2.35718,2.31717,3.83187    c1.81492,1.47469,3.85981,1.41341,3.85981,1.41341s4.63827-0.80134,5.65011-5.17622c0,0,1.90334-0.23536,2.08119-1.78305    c0.17785-1.54769-1.06935-2.59184-1.06935-2.59184l-1.49771,2.32074l-0.16162-3.57498l0.28586-2.06856l-5.44338,0.29148    l-5.67557-0.21895l0.47659,1.99292l-0.29244,3.68509L17.01233,17.16884z" style="fill:#F9D9C0;"/><path d="M18.50854,19.69332c0,0-2.6139-3.62505-2.53693-6.19198s1.56482-2.08779,1.92253-1.96371    c0,0,1.70962-2.27334,5.4937-2.92496s6.86928,0.33624,6.86928,0.33624s-0.98159,1.25351-0.54669,2.24763    c0.4349,0.99413,2.09875,2.30359,1.10637,6.06902l-1.49771,2.32074l-0.16162-3.77473l0.28586-1.86881l-5.44338,0.29148    l-5.5163-0.29148l0.31732,2.06546L18.50854,19.69332z" style="fill:#464747;"/><path d="    M20.40843,25.4733l-0.11339,1.34337l-5.38711,1.46017c-2.92057,0.79154-5.22335,2.6859-6.21409,5.11211l-1.44434,3.53671    c0,0,16.0547,6.13952,33.50101,0.02821l-1.44434-3.5366c-0.99085-2.42622-3.29352-4.32068-6.21409-5.11222l-5.38711-1.46008    l-0.10867-1.36883" style="fill:none;stroke:#303030;stroke-width:0.8;stroke-linecap:round;stroke-linejoin:round;stroke-miterlimit:10;"/><path d="    M29.8791,21.48349c0.85801,0.15555,1.75651-0.57256,2.00704-1.62609c0.25053-1.05364-0.22079-2.3934-1.07869-2.54895    l-1.48837,2.27785l-0.16162-3.68389l0,0" style="fill:none;stroke:#303030;stroke-width:0.8;stroke-linecap:round;stroke-linejoin:round;stroke-miterlimit:10;"/><path d="    M17.13263,17.26557c-0.79949,0.15552-1.25845,1.5382-1.025,2.59184c0.23346,1.05353,1.07074,1.78163,1.87023,1.62609" style="fill:none;stroke:#303030;stroke-width:0.8;stroke-linecap:round;stroke-linejoin:round;stroke-miterlimit:10;"/><path d="    M29.8398,21.50448c-0.73903,3.0202-3.12482,5.23153-5.954,5.23153c-2.77785,0-5.12412-2.31624-5.90793-5.25251" style="fill:none;stroke:#303030;stroke-width:0.8;stroke-linecap:round;stroke-linejoin:round;stroke-miterlimit:10;"/><path d="    M30.80745,17.30846c0.92835-4.17504-0.36028-4.22023-0.96765-5.69741c-0.60737-1.4772,0.50407-2.63793,0.50407-2.63793    c-8.2934-2.35642-12.366,2.59546-12.366,2.59546s-1.2417-0.56282-1.83254,0.89043c-0.71036,1.74717,0.9873,4.80656,0.9873,4.80656    l1.48246,2.42775l0.18588-3.68509l0,0l-0.31732-2.06546l5.5163,0.29148l5.44338-0.29148l-0.28586,1.95965" style="fill:none;stroke:#303030;stroke-width:0.8;stroke-linecap:round;stroke-linejoin:round;stroke-miterlimit:10;"/><path d="    M20.29503,26.81668c0.00006,3.84384,7.41,3.8772,7.40993,0.02829" style="fill:none;stroke:#303030;stroke-width:0.8;stroke-linecap:round;stroke-linejoin:round;stroke-miterlimit:10;"/></g></g></svg>